<svg width="20" height="11" viewBox="0 0 20 11" fill="none" xmlns="http://www.w3.org/2000/svg">
<path d="M7.38281 10.084C6.86523 10.084 6.48112 9.95215 6.23047 9.68848C5.97982 9.42806 5.8138 9.03906 5.73242 8.52148L4.94141 3.31641L6.01074 3.35059L6.79688 8.43359C6.83268 8.64844 6.90267 8.80306 7.00684 8.89746C7.11426 8.98861 7.26562 9.03418 7.46094 9.03418H12.5439C12.736 9.03418 12.8857 8.98861 12.9932 8.89746C13.1006 8.80306 13.1706 8.64844 13.2031 8.43359L13.9941 3.35059L15.0586 3.31641L14.2676 8.52148C14.1862 9.03906 14.0202 9.42806 13.7695 9.68848C13.5189 9.95215 13.1331 10.084 12.6123 10.084H7.38281ZM5.07324 3.90234C4.72168 3.90234 4.44499 3.79655 4.24316 3.58496C4.04134 3.37012 3.94043 3.08691 3.94043 2.73535V2.04199C3.94043 1.69043 4.04297 1.40885 4.24805 1.19727C4.45638 0.985677 4.73145 0.879883 5.07324 0.879883H14.9268C15.2816 0.879883 15.5583 0.985677 15.7568 1.19727C15.9587 1.40885 16.0596 1.69043 16.0596 2.04199V2.73535C16.0596 3.08691 15.9587 3.37012 15.7568 3.58496C15.5583 3.79655 15.2816 3.90234 14.9268 3.90234H5.07324ZM5.25391 2.93066H14.751C14.8551 2.93066 14.9316 2.90462 14.9805 2.85254C15.0293 2.80046 15.0537 2.72233 15.0537 2.61816V2.15918C15.0537 2.05176 15.0293 1.97363 14.9805 1.9248C14.9316 1.87272 14.8551 1.84668 14.751 1.84668H5.25391C5.14974 1.84668 5.07161 1.87272 5.01953 1.9248C4.9707 1.97363 4.94629 2.05176 4.94629 2.15918V2.61816C4.94629 2.72233 4.9707 2.80046 5.01953 2.85254C5.07161 2.90462 5.14974 2.93066 5.25391 2.93066ZM8.68652 8.19922C8.56283 8.19922 8.45703 8.15527 8.36914 8.06738C8.28451 7.97949 8.24219 7.87533 8.24219 7.75488C8.24219 7.63444 8.28776 7.52865 8.37891 7.4375L9.37012 6.44141L8.37891 5.44531C8.28776 5.35417 8.24219 5.24837 8.24219 5.12793C8.24219 5.00749 8.28451 4.90495 8.36914 4.82031C8.45703 4.73242 8.56283 4.68848 8.68652 4.68848C8.80046 4.68848 8.90299 4.73242 8.99414 4.82031L10 5.82617L11.0059 4.81543C11.1003 4.72428 11.2028 4.67871 11.3135 4.67871C11.4372 4.67871 11.5413 4.72266 11.626 4.81055C11.7139 4.89844 11.7578 5.00423 11.7578 5.12793C11.7578 5.24512 11.7139 5.34928 11.626 5.44043L10.625 6.44141L11.6211 7.4375C11.6634 7.47982 11.696 7.52702 11.7188 7.5791C11.7448 7.62793 11.7578 7.68652 11.7578 7.75488C11.7578 7.87533 11.7139 7.97949 11.626 8.06738C11.5413 8.15527 11.4372 8.19922 11.3135 8.19922C11.2484 8.19922 11.1898 8.18783 11.1377 8.16504C11.0889 8.139 11.0417 8.10482 10.9961 8.0625L10 7.06152L8.99902 8.0625C8.91113 8.15365 8.80697 8.19922 8.68652 8.19922Z" fill="white"/>
</svg>
