<svg width="10" height="9" viewBox="0 0 10 9" fill="none" xmlns="http://www.w3.org/2000/svg">
<path d="M2.30957 8.18066L1.08887 8.64453C1.01074 8.67708 0.939128 8.65918 0.874023 8.59082C0.808919 8.52572 0.792643 8.45247 0.825195 8.37109L1.30859 7.17969L6.91895 1.56934L7.91992 2.5752L2.30957 8.18066ZM8.41309 2.08691L7.40723 1.08105L7.95898 0.53418C8.0957 0.400716 8.2373 0.329102 8.38379 0.319336C8.53353 0.30957 8.67025 0.368164 8.79395 0.495117L9.00391 0.705078C9.13086 0.832031 9.19108 0.96875 9.18457 1.11523C9.17806 1.25846 9.10645 1.40007 8.96973 1.54004L8.41309 2.08691Z" fill="white"/>
</svg>
