<svg width="13" height="11" viewBox="0 0 13 11" fill="none" xmlns="http://www.w3.org/2000/svg">
<path d="M8.49805 10.7676C8.24023 10.7676 8.00391 10.7031 7.78906 10.5742C7.57812 10.4492 7.4082 10.2793 7.2793 10.0645C7.15039 9.85352 7.08594 9.61914 7.08594 9.36133C7.08594 9.10352 7.15039 8.86914 7.2793 8.6582C7.4082 8.44336 7.57812 8.27344 7.78906 8.14844C8.00391 8.01953 8.24023 7.95508 8.49805 7.95508C8.75586 7.95508 8.99023 8.01953 9.20117 8.14844C9.41602 8.27344 9.58594 8.44336 9.71094 8.6582C9.83984 8.86914 9.9043 9.10352 9.9043 9.36133C9.9043 9.61914 9.83984 9.85352 9.71094 10.0645C9.58594 10.2793 9.41602 10.4492 9.20117 10.5742C8.99023 10.7031 8.75586 10.7676 8.49805 10.7676ZM8.49805 10.0469C8.68945 10.0469 8.85156 9.98047 8.98438 9.84766C9.11719 9.71484 9.18359 9.55273 9.18359 9.36133C9.18359 9.16602 9.11719 9.00391 8.98438 8.875C8.85156 8.74219 8.68945 8.67578 8.49805 8.67578C8.30664 8.67578 8.14453 8.74219 8.01172 8.875C7.87891 9.00391 7.8125 9.16602 7.8125 9.36133C7.8125 9.55273 7.87891 9.71484 8.01172 9.84766C8.14453 9.98047 8.30664 10.0469 8.49805 10.0469ZM7.56641 8.88672V9.83008H0.962891C0.833984 9.83008 0.722656 9.78516 0.628906 9.69531C0.539062 9.60156 0.494141 9.49023 0.494141 9.36133C0.494141 9.22852 0.539062 9.11719 0.628906 9.02734C0.722656 8.93359 0.833984 8.88672 0.962891 8.88672H7.56641ZM11.8496 8.88672C11.9707 8.88672 12.0762 8.93359 12.166 9.02734C12.2559 9.11719 12.3008 9.22852 12.3008 9.36133C12.3008 9.49023 12.2559 9.60156 12.166 9.69531C12.0762 9.78516 11.9707 9.83008 11.8496 9.83008H9.51758V8.88672H11.8496ZM4.36133 7.19336C4.10352 7.19336 3.86719 7.12891 3.65234 7C3.44141 6.87109 3.27148 6.70117 3.14258 6.49023C3.01758 6.27539 2.95508 6.03906 2.95508 5.78125C2.95508 5.52344 3.01758 5.28906 3.14258 5.07812C3.27148 4.86328 3.44141 4.69336 3.65234 4.56836C3.86719 4.43945 4.10352 4.375 4.36133 4.375C4.61914 4.375 4.85352 4.43945 5.06445 4.56836C5.2793 4.69336 5.44922 4.86328 5.57422 5.07812C5.70312 5.28906 5.76758 5.52344 5.76758 5.78125C5.76758 6.03906 5.70312 6.27539 5.57422 6.49023C5.44922 6.70117 5.2793 6.87109 5.06445 7C4.85352 7.12891 4.61914 7.19336 4.36133 7.19336ZM4.36133 6.4668C4.55664 6.4668 4.71875 6.40039 4.84766 6.26758C4.98047 6.13477 5.04688 5.97266 5.04688 5.78125C5.04688 5.58594 4.98047 5.42383 4.84766 5.29492C4.71875 5.16211 4.55664 5.0957 4.36133 5.0957C4.16992 5.0957 4.00781 5.16211 3.875 5.29492C3.74219 5.42383 3.67578 5.58594 3.67578 5.78125C3.67578 5.97266 3.74219 6.13477 3.875 6.26758C4.00781 6.40039 4.16992 6.4668 4.36133 6.4668ZM0.939453 5.30664H3.35352V6.25H0.939453C0.822266 6.25 0.71875 6.20508 0.628906 6.11523C0.539062 6.02539 0.494141 5.91406 0.494141 5.78125C0.494141 5.64844 0.539062 5.53711 0.628906 5.44727C0.71875 5.35352 0.822266 5.30664 0.939453 5.30664ZM11.8262 5.30664C11.959 5.30664 12.0703 5.35352 12.1602 5.44727C12.2539 5.53711 12.3008 5.64844 12.3008 5.78125C12.3008 5.91406 12.2539 6.02539 12.1602 6.11523C12.0703 6.20508 11.959 6.25 11.8262 6.25H5.29297V5.30664H11.8262ZM8.49805 3.60742C8.24023 3.60742 8.00391 3.54492 7.78906 3.41992C7.57812 3.29102 7.4082 3.12109 7.2793 2.91016C7.15039 2.69531 7.08594 2.45898 7.08594 2.20117C7.08594 1.94336 7.15039 1.70898 7.2793 1.49805C7.4082 1.2832 7.57812 1.11133 7.78906 0.982422C8.00391 0.853516 8.24023 0.789062 8.49805 0.789062C8.75586 0.789062 8.99023 0.853516 9.20117 0.982422C9.41602 1.11133 9.58594 1.2832 9.71094 1.49805C9.83984 1.70898 9.9043 1.94336 9.9043 2.20117C9.9043 2.45898 9.83984 2.69531 9.71094 2.91016C9.58594 3.12109 9.41602 3.29102 9.20117 3.41992C8.99023 3.54492 8.75586 3.60742 8.49805 3.60742ZM8.49805 2.88672C8.68945 2.88672 8.85156 2.82031 8.98438 2.6875C9.11719 2.55078 9.18359 2.38672 9.18359 2.19531C9.18359 2.00391 9.11719 1.8418 8.98438 1.70898C8.85156 1.57617 8.68945 1.50977 8.49805 1.50977C8.30664 1.50977 8.14453 1.57617 8.01172 1.70898C7.87891 1.8418 7.8125 2.00391 7.8125 2.19531C7.8125 2.38672 7.87891 2.55078 8.01172 2.6875C8.14453 2.82031 8.30664 2.88672 8.49805 2.88672ZM7.5957 1.73242V2.67578H0.962891C0.833984 2.67578 0.722656 2.63086 0.628906 2.54102C0.539062 2.44727 0.494141 2.33398 0.494141 2.20117C0.494141 2.07227 0.539062 1.96289 0.628906 1.87305C0.722656 1.7793 0.833984 1.73242 0.962891 1.73242H7.5957ZM11.8496 1.73242C11.9707 1.73242 12.0762 1.7793 12.166 1.87305C12.2559 1.96289 12.3008 2.07227 12.3008 2.20117C12.3008 2.33398 12.2559 2.44727 12.166 2.54102C12.0762 2.63086 11.9707 2.67578 11.8496 2.67578H9.43555V1.73242H11.8496Z" fill="white"/>
</svg>
