<svg width="10" height="12" viewBox="0 0 10 12" fill="none" xmlns="http://www.w3.org/2000/svg">
<path d="M2.18262 11.6797C1.64225 11.6797 1.23047 11.5397 0.947266 11.2598C0.667318 10.9831 0.527344 10.5762 0.527344 10.0391V5.2832C0.527344 4.74609 0.667318 4.33919 0.947266 4.0625C1.23047 3.78255 1.64225 3.64258 2.18262 3.64258H3.55957V4.73145H2.27051C2.05566 4.73145 1.89128 4.78678 1.77734 4.89746C1.66667 5.00488 1.61133 5.1709 1.61133 5.39551V9.92676C1.61133 10.1514 1.66667 10.319 1.77734 10.4297C1.89128 10.5404 2.05566 10.5957 2.27051 10.5957H7.72461C7.9362 10.5957 8.09896 10.5404 8.21289 10.4297C8.32682 10.319 8.38379 10.1514 8.38379 9.92676V5.39551C8.38379 5.1709 8.32682 5.00488 8.21289 4.89746C8.09896 4.78678 7.9362 4.73145 7.72461 4.73145H6.44043V3.64258H7.81738C8.35775 3.64258 8.7679 3.78255 9.04785 4.0625C9.33105 4.34245 9.47266 4.74935 9.47266 5.2832V10.0391C9.47266 10.5729 9.33105 10.9798 9.04785 11.2598C8.7679 11.5397 8.35775 11.6797 7.81738 11.6797H2.18262ZM4.99512 7.73926C4.8584 7.73926 4.74121 7.69043 4.64355 7.59277C4.5459 7.49512 4.49707 7.37956 4.49707 7.24609V2.39258L4.54102 1.6748L4.25781 2.04102L3.61328 2.72949C3.52539 2.82389 3.41471 2.87109 3.28125 2.87109C3.16081 2.87109 3.05664 2.83203 2.96875 2.75391C2.88411 2.67253 2.8418 2.56999 2.8418 2.44629C2.8418 2.33236 2.88737 2.22819 2.97852 2.13379L4.60938 0.566406C4.67773 0.501302 4.74284 0.457357 4.80469 0.43457C4.86654 0.408529 4.93001 0.395508 4.99512 0.395508C5.06348 0.395508 5.12858 0.408529 5.19043 0.43457C5.25553 0.457357 5.32064 0.501302 5.38574 0.566406L7.0166 2.13379C7.10775 2.22819 7.15332 2.33236 7.15332 2.44629C7.15332 2.56999 7.10938 2.67253 7.02148 2.75391C6.93359 2.83203 6.83105 2.87109 6.71387 2.87109C6.58366 2.87109 6.47461 2.82389 6.38672 2.72949L5.7373 2.04102L5.45898 1.6748L5.49805 2.39258V7.24609C5.49805 7.37956 5.44922 7.49512 5.35156 7.59277C5.25716 7.69043 5.13835 7.73926 4.99512 7.73926Z" fill="white"/>
</svg>
