<svg width="20" height="11" viewBox="0 0 20 11" fill="none" xmlns="http://www.w3.org/2000/svg">
<path d="M9.53125 10.0645C8.67513 10.0645 8.24707 9.76986 8.24707 9.18066C8.24707 8.83887 8.34961 8.48568 8.55469 8.12109C8.75977 7.75326 9.05111 7.41309 9.42871 7.10059C9.80957 6.78809 10.2637 6.53581 10.791 6.34375C11.3216 6.14844 11.9108 6.05078 12.5586 6.05078C13.2096 6.05078 13.7988 6.14844 14.3262 6.34375C14.8568 6.53581 15.3109 6.78809 15.6885 7.10059C16.0693 7.41309 16.3623 7.75326 16.5674 8.12109C16.7725 8.48568 16.875 8.83887 16.875 9.18066C16.875 9.76986 16.4453 10.0645 15.5859 10.0645H9.53125ZM9.42383 9.13672H15.6934C15.7487 9.13672 15.7861 9.12695 15.8057 9.10742C15.8285 9.09115 15.8398 9.06185 15.8398 9.01953C15.8398 8.84049 15.7666 8.63542 15.6201 8.4043C15.4769 8.17318 15.2653 7.9502 14.9854 7.73535C14.7054 7.51725 14.362 7.33659 13.9551 7.19336C13.5482 7.05013 13.0827 6.97852 12.5586 6.97852C12.0345 6.97852 11.569 7.05013 11.1621 7.19336C10.7552 7.33659 10.4118 7.51725 10.1318 7.73535C9.85189 7.9502 9.63867 8.17318 9.49219 8.4043C9.34896 8.63542 9.27734 8.84049 9.27734 9.01953C9.27734 9.06185 9.28874 9.09115 9.31152 9.10742C9.33431 9.12695 9.37174 9.13672 9.42383 9.13672ZM12.5635 5.50391C12.1631 5.50391 11.8001 5.39974 11.4746 5.19141C11.1491 4.98307 10.8887 4.70312 10.6934 4.35156C10.5013 3.99674 10.4053 3.60612 10.4053 3.17969C10.4053 2.75651 10.5029 2.3724 10.6982 2.02734C10.8936 1.67904 11.154 1.40234 11.4795 1.19727C11.805 0.988932 12.1663 0.884766 12.5635 0.884766C12.9606 0.884766 13.3219 0.987305 13.6475 1.19238C13.973 1.39746 14.2318 1.67253 14.4238 2.01758C14.6191 2.36263 14.7168 2.74674 14.7168 3.16992C14.7168 3.59961 14.6191 3.99186 14.4238 4.34668C14.2318 4.69824 13.973 4.97982 13.6475 5.19141C13.3219 5.39974 12.9606 5.50391 12.5635 5.50391ZM12.5635 4.58105C12.7816 4.58105 12.9801 4.51921 13.1592 4.39551C13.3415 4.26855 13.4863 4.09928 13.5938 3.8877C13.7044 3.67285 13.7598 3.43359 13.7598 3.16992C13.7598 2.91276 13.7061 2.68164 13.5986 2.47656C13.4912 2.27148 13.3464 2.10872 13.1641 1.98828C12.9818 1.86784 12.7816 1.80762 12.5635 1.80762C12.3454 1.80762 12.1452 1.86784 11.9629 1.98828C11.7839 2.10872 11.639 2.27311 11.5283 2.48145C11.4176 2.68978 11.3623 2.9209 11.3623 3.1748C11.3623 3.43848 11.4176 3.67773 11.5283 3.89258C11.639 4.10417 11.7839 4.27181 11.9629 4.39551C12.1452 4.51921 12.3454 4.58105 12.5635 4.58105ZM4.20898 10.0645C3.84766 10.0645 3.57585 9.98633 3.39355 9.83008C3.21126 9.67383 3.12012 9.44271 3.12012 9.13672C3.12012 8.73307 3.21777 8.3457 3.41309 7.97461C3.6084 7.60352 3.87695 7.27311 4.21875 6.9834C4.5638 6.69368 4.96257 6.46582 5.41504 6.2998C5.87077 6.13053 6.35742 6.0459 6.875 6.0459C7.1224 6.0459 7.36979 6.06868 7.61719 6.11426C7.86458 6.15658 8.10547 6.22005 8.33984 6.30469C8.57422 6.38607 8.79395 6.48698 8.99902 6.60742C8.84928 6.70508 8.71745 6.81087 8.60352 6.9248C8.49284 7.03548 8.39681 7.15755 8.31543 7.29102C8.18522 7.2194 8.04036 7.15918 7.88086 7.11035C7.72135 7.05827 7.55534 7.01921 7.38281 6.99316C7.21354 6.96387 7.04427 6.94922 6.875 6.94922C6.49414 6.94922 6.13607 7.00781 5.80078 7.125C5.46549 7.24219 5.16764 7.40007 4.90723 7.59863C4.65007 7.7972 4.44824 8.02181 4.30176 8.27246C4.15853 8.51986 4.08691 8.77539 4.08691 9.03906C4.08691 9.07812 4.09505 9.10742 4.11133 9.12695C4.13086 9.14648 4.16341 9.15625 4.20898 9.15625H7.54883C7.5293 9.32878 7.55859 9.5013 7.63672 9.67383C7.7181 9.84961 7.8304 9.97982 7.97363 10.0645H4.20898ZM6.87988 5.56738C6.53483 5.56738 6.21908 5.47624 5.93262 5.29395C5.64941 5.1084 5.42318 4.861 5.25391 4.55176C5.08464 4.24251 5 3.89909 5 3.52148C5 3.15039 5.08464 2.81348 5.25391 2.51074C5.42643 2.20475 5.6543 1.96061 5.9375 1.77832C6.2207 1.59603 6.53483 1.50488 6.87988 1.50488C7.22493 1.50488 7.53906 1.59603 7.82227 1.77832C8.10872 1.95736 8.33659 2.19987 8.50586 2.50586C8.67513 2.80859 8.75977 3.14388 8.75977 3.51172C8.75977 3.88932 8.67513 4.23438 8.50586 4.54688C8.33659 4.85938 8.10872 5.1084 7.82227 5.29395C7.53906 5.47624 7.22493 5.56738 6.87988 5.56738ZM6.87988 4.6543C7.05566 4.6543 7.2168 4.60384 7.36328 4.50293C7.51302 4.40202 7.63184 4.2653 7.71973 4.09277C7.81087 3.92025 7.85645 3.72656 7.85645 3.51172C7.85645 3.30664 7.81087 3.12272 7.71973 2.95996C7.63184 2.79395 7.51465 2.66211 7.36816 2.56445C7.22168 2.46354 7.05892 2.41309 6.87988 2.41309C6.7041 2.41309 6.54134 2.46354 6.3916 2.56445C6.24512 2.66211 6.12793 2.79557 6.04004 2.96484C5.95215 3.13086 5.9082 3.31641 5.9082 3.52148C5.9082 3.73307 5.95215 3.92513 6.04004 4.09766C6.13118 4.27018 6.25 4.4069 6.39648 4.50781C6.54297 4.60547 6.7041 4.6543 6.87988 4.6543Z" fill="white"/>
</svg>
