<svg width="20" height="12" viewBox="0 0 20 12" fill="none" xmlns="http://www.w3.org/2000/svg">
<path d="M6.57715 11.2939C6.45345 11.1995 6.37858 11.0742 6.35254 10.918C6.3265 10.765 6.34766 10.5876 6.41602 10.3857L7.40723 7.44141L4.87793 5.62988C4.70215 5.50293 4.57845 5.37109 4.50684 5.23438C4.43848 5.0944 4.43034 4.94954 4.48242 4.7998C4.53125 4.65332 4.62402 4.54427 4.76074 4.47266C4.89746 4.40104 5.07324 4.36686 5.28809 4.37012L8.39355 4.38965L9.33594 1.42578C9.40104 1.2207 9.48893 1.06445 9.59961 0.957031C9.71029 0.846354 9.84212 0.791016 9.99512 0.791016C10.1514 0.791016 10.2848 0.846354 10.3955 0.957031C10.5062 1.06445 10.5941 1.2207 10.6592 1.42578L11.6016 4.38965L14.7021 4.37012C14.9202 4.36686 15.0977 4.40104 15.2344 4.47266C15.3711 4.54427 15.4639 4.65332 15.5127 4.7998C15.5648 4.94954 15.555 5.0944 15.4834 5.23438C15.415 5.37109 15.293 5.50293 15.1172 5.62988L12.5879 7.44141L13.5791 10.3857C13.6475 10.5876 13.6686 10.765 13.6426 10.918C13.6165 11.0742 13.5417 11.1995 13.418 11.2939C13.291 11.3883 13.1494 11.4225 12.9932 11.3965C12.8402 11.3704 12.6774 11.2939 12.5049 11.167L9.99512 9.32617L7.49023 11.167C7.31771 11.2939 7.15332 11.3704 6.99707 11.3965C6.84408 11.4225 6.7041 11.3883 6.57715 11.2939ZM7.55371 9.95605C7.55697 9.96257 7.56836 9.95931 7.58789 9.94629L9.68262 8.32031C9.79655 8.23242 9.90072 8.18848 9.99512 8.18848C10.0928 8.18848 10.1986 8.23242 10.3125 8.32031L12.4072 9.94629C12.4268 9.95931 12.4382 9.96257 12.4414 9.95605C12.4479 9.94954 12.4495 9.93652 12.4463 9.91699L11.5527 7.42188C11.5169 7.33073 11.4974 7.2526 11.4941 7.1875C11.4941 7.11914 11.512 7.05729 11.5479 7.00195C11.5869 6.94661 11.6488 6.88965 11.7334 6.83105L13.9258 5.3418C13.9453 5.32878 13.9535 5.31738 13.9502 5.30762C13.9469 5.29785 13.9339 5.29297 13.9111 5.29297L11.2646 5.36621C11.1182 5.37272 11.0059 5.35156 10.9277 5.30273C10.8529 5.25065 10.7975 5.15299 10.7617 5.00977L10.0195 2.4707C10.0163 2.44792 10.0081 2.43652 9.99512 2.43652C9.98535 2.43652 9.97884 2.44792 9.97559 2.4707L9.2334 5.00977C9.19759 5.15299 9.14062 5.25065 9.0625 5.30273C8.98763 5.35156 8.87858 5.37272 8.73535 5.36621L6.08887 5.29297C6.06283 5.29297 6.0498 5.29785 6.0498 5.30762C6.04329 5.32064 6.0498 5.33203 6.06934 5.3418L8.26172 6.83105C8.34635 6.88639 8.40658 6.94336 8.44238 7.00195C8.48145 7.05729 8.49935 7.11914 8.49609 7.1875C8.49609 7.2526 8.47819 7.33073 8.44238 7.42188L7.54883 9.91699C7.54557 9.93652 7.5472 9.94954 7.55371 9.95605Z" fill="white"/>
</svg>
