<svg width="20" height="11" viewBox="0 0 20 11" fill="none" xmlns="http://www.w3.org/2000/svg">
<path d="M10.7861 6.25586C10.6462 6.39258 10.4915 6.47559 10.3223 6.50488C10.153 6.53092 9.99023 6.50814 9.83398 6.43652C9.67773 6.36491 9.54427 6.24609 9.43359 6.08008L7.79297 3.66309C7.72135 3.55566 7.7002 3.45801 7.72949 3.37012C7.75879 3.27897 7.81738 3.21875 7.90527 3.18945C7.99642 3.1569 8.09733 3.17643 8.20801 3.24805L10.625 4.89355C10.7878 5.00423 10.9033 5.1377 10.9717 5.29395C11.0433 5.4502 11.0645 5.61296 11.0352 5.78223C11.0091 5.9515 10.9261 6.10938 10.7861 6.25586ZM10 10.5674C9.30339 10.5674 8.64746 10.4339 8.03223 10.167C7.41699 9.90332 6.875 9.53711 6.40625 9.06836C5.9375 8.59961 5.56966 8.05924 5.30273 7.44727C5.03906 6.83203 4.90723 6.17448 4.90723 5.47461C4.90723 4.77799 5.03906 4.1237 5.30273 3.51172C5.56966 2.89648 5.93587 2.35449 6.40137 1.88574C6.87012 1.41699 7.41211 1.05078 8.02734 0.787109C8.64258 0.520182 9.2985 0.386719 9.99512 0.386719C10.6917 0.386719 11.3477 0.520182 11.9629 0.787109C12.5814 1.05078 13.1234 1.41699 13.5889 1.88574C14.0576 2.35449 14.4255 2.89648 14.6924 3.51172C14.9593 4.1237 15.0928 4.77799 15.0928 5.47461C15.0928 6.17448 14.9593 6.83203 14.6924 7.44727C14.4255 8.05924 14.0576 8.59961 13.5889 9.06836C13.1234 9.53711 12.583 9.90332 11.9678 10.167C11.3525 10.4339 10.6966 10.5674 10 10.5674ZM10 9.44922C10.5501 9.44922 11.0645 9.34668 11.543 9.1416C12.0247 8.93652 12.4479 8.65332 12.8125 8.29199C13.1771 7.92741 13.4619 7.50586 13.667 7.02734C13.8721 6.54557 13.9746 6.02799 13.9746 5.47461C13.9746 4.92448 13.8704 4.41016 13.6621 3.93164C13.457 3.44987 13.1722 3.02669 12.8076 2.66211C12.4463 2.29753 12.0247 2.0127 11.543 1.80762C11.0645 1.60254 10.5485 1.5 9.99512 1.5C9.44499 1.5 8.92904 1.60254 8.44727 1.80762C7.96875 2.0127 7.5472 2.29753 7.18262 2.66211C6.82129 3.02669 6.53809 3.44987 6.33301 3.93164C6.13118 4.41016 6.03027 4.92448 6.03027 5.47461C6.03027 6.02799 6.13118 6.54557 6.33301 7.02734C6.53809 7.50586 6.82292 7.92741 7.1875 8.29199C7.55208 8.65332 7.97363 8.93652 8.45215 9.1416C8.93392 9.34668 9.44987 9.44922 10 9.44922Z" fill="white"/>
</svg>
